<?xml version="1.0" encoding="UTF-8" standalone="no"?>
<svg xml:space="preserve" fill-rule="evenodd" stroke-linejoin="round" clip-rule="evenodd" viewBox="0 0 180 180" version="1.1" xmlns="http://www.w3.org/2000/svg">
  <rect id="bg" width="180" height="180" fill="#2e2a24" />
  <g id="logo" transform="matrix(0.90625002,0,0,0.90625002,8.6701386,10.94442)">
    <path fill="#d1d3d4" stroke="#000" stroke-width="2.85872" d="M 87.367419,36.403392 C 87.809058,22.386109 83.087096,14.122078 69.512648,8.663055 65.654269,22.15932 81.583135,34.603411 87.367419,36.403392 Z" />
    <path fill="#d1d3d4" stroke="#000" stroke-width="2.85872" d="m 124.18046,60.158827 c 0.44165,-11.510083 -2.46542,-16.155653 -4.64736,-19.477499 -2.21356,-3.098639 -7.52518,-7.968611 -14.0513,-8.17272 -6.17161,-0.193366 -7.655877,3.218001 -13.349447,3.4239 C 91.198942,25.564721 99.02372,19.87533 99.02372,19.87533 c 0,0 -2.139564,-3.024039 -3.909703,-3.76289 -2.545993,2.262508 -9.553739,9.809173 -7.932206,19.520469 -5.2388,-1.001448 -8.936636,-3.999821 -14.439823,-2.917209 -7.49713,1.475316 -13.677101,6.008089 -17.199475,15.95453 -3.521778,9.947037 1.243156,21.551414 2.279219,24.865501 1.036659,3.317072 8.70388,17.405375 14.713162,19.478689 6.00809,2.07392 6.009879,1.13931 9.221913,-0.10324 3.212629,-1.243158 8.08081,-3.522375 15.23179,-0.931622 7.146803,2.589562 8.079023,3.210242 12.533023,0.309742 4.45757,-2.899899 10.25797,-11.913524 11.60378,-14.504277 1.34699,-2.589559 2.07272,-3.937158 2.4887,-5.283561 4.33045,-2.161051 0.16889,-2.027364 0.56636,-12.342633 z" />
    <path fill="#fff" fill-rule="nonzero" stroke="#000" stroke-width="2.85872" d="m 135.8129,144.27923 a 10.742584,10.742584 0 0 0 10.78077,-10.74138 c 0.001,-10.90552 0.001,-27.75765 0.001,-38.69301 A 10.742584,10.742584 0 0 0 135.85216,84.102257 h -8.85546 a 2.387241,2.387241 0 0 1 -2.38724,-2.387241 V 76.087094 H 54.76487 l 0.176058,82.486936 a 2.3878378,2.3878378 0 0 0 1.104099,2.00826 c 3.110575,1.80118 13.082678,5.22209 34.020571,5.22209 21.380722,0 30.938052,-4.57992 33.674422,-6.64786 a 2.3747079,2.3747079 0 0 0 0.85821,-1.82743 c 0.0114,-2.28281 0.0114,-7.57233 0.0114,-10.69723 a 2.3866442,2.3866442 0 0 1 2.43678,-2.38664 c 2.62656,0.037 5.77354,0.0424 8.76655,0.0341 z M 124.60957,96.65019 c 0,-0.79137 0.31453,-1.55051 0.87374,-2.11032 a 2.9864385,2.9864385 0 0 1 2.11032,-0.87373 h 7.60216 c 0.79137,0 1.55051,0.31452 2.11033,0.87373 a 2.9864385,2.9864385 0 0 1 0.87372,2.11032 v 34.7254 a 2.9864385,2.9864385 0 0 1 -0.87372,2.11032 2.9864385,2.9864385 0 0 1 -2.11033,0.87374 h -7.60216 a 2.9864385,2.9864385 0 0 1 -2.11032,-0.87374 2.9864385,2.9864385 0 0 1 -0.87374,-2.11032 z" />
    <path fill="#fbb040" d="m 61.650269,75.394795 v 73.996115 c 0,0.85403 0.455963,1.64302 1.19541,2.06914 3.020458,1.43951 11.782826,4.87534 27.145318,4.87534 15.464543,0 23.966713,-4.17468 26.813483,-5.89529 a 2.3794825,2.3794825 0 0 0 1.09038,-1.99991 c 0.007,-9.81215 0.007,-73.045395 0.007,-73.045395 z" style="stroke-width:0.59681" />
    <path fill="none" stroke="#ffdb96" stroke-linecap="round" stroke-linejoin="miter" stroke-width="6.5781" d="M 69.918478,87.928097 V 145.11193" />
    <path fill="#fff" stroke="#000" stroke-linecap="round" stroke-width="2.85872" d="m 101.69982,90.579439 c 0,-1.193621 -0.70245,-2.618804 -1.856083,-3.334379 A 9.9870227,9.9870227 0 0 1 95.70068,82.291533 C 80.42771,82.805388 66.487417,80.123323 59.46475,78.229644 a 58.617509,58.617509 0 0 0 -5.473346,-1.271207 c -4.203335,-0.833743 -7.39806,-4.525015 -7.39806,-8.962896 0,-4.884891 3.875685,-8.854276 8.718203,-9.027948 0.934009,-5.166586 5.443507,-9.088823 10.879255,-9.088823 6.11253,0 11.067249,4.955912 11.067249,11.067845 0,1.286127 -0.232159,2.517347 -0.635007,3.666804 l 0.03284,0.0054 c 1.364905,-4.268984 5.361146,-7.362251 10.083706,-7.362251 4.692123,0 8.666878,3.056862 10.055059,7.28586 a 11.144238,11.144238 0 0 1 -0.06029,-1.161989 c 0,-6.357225 5.152861,-11.510084 11.508891,-11.510084 5.14569,0 9.50062,3.37735 10.97415,8.034261 l 1.00323,-0.261404 a 9.0016889,9.0016889 0 0 1 4.4355,-1.166763 c 4.9947,0 9.04406,4.049356 9.04226,9.042867 0,4.575148 -3.39644,8.355941 -7.80568,8.959317 a 13.332144,13.332144 0 0 0 -2.91899,0.757949 c -2.6206,0.98772 -5.30028,1.806544 -8.00741,2.482134 a 9.9428587,9.9428587 0 0 1 -1.1393,3.718724 12.367699,12.367699 0 0 0 -1.42041,6.718293 c -10e-4,0.140847 0.005,0.878505 0.005,1.020545 0,2.957792 -2.39679,4.757772 -5.35697,4.757772 a 5.3539847,5.3539847 0 0 1 -5.35401,-5.354623 z" />
  </g>
</svg>
