<?xml version="1.0" encoding="UTF-8"?>
<svg width="198px" height="253px" viewBox="0 0 198 253" version="1.1" xmlns="http://www.w3.org/2000/svg" xmlns:xlink="http://www.w3.org/1999/xlink">
    <!-- Generator: Sketch 52.2 (67145) - http://www.bohemiancoding.com/sketch -->
    <title>brewsci</title>
    <desc>Created with Sketch.</desc>
    <g id="Page-1" stroke="none" stroke-width="1" fill="none" fill-rule="evenodd">
        <g id="brewsci" transform="translate(3.000000, 3.000000)">
            <g id="Group">
                <path d="M191.742,169.188 C183.691,153.262 164.611,126.131 157.553,115.051 C150.252,103.588 140.088,110.171 123.199,122.215 L116.426,111.992 L116.426,48.498 L63.809,48.498 L63.809,111.992 L3.318,207.784 C1.31,210.237 0.073,213.547 0.073,217.197 C0.073,223.4 3.628,228.628 8.498,230.306 C13.203,232.675 44.401,247.416 92.535,247.416 C141.879,247.416 172.325,231.72 175.646,229.923 C180.023,227.927 183.126,222.987 183.126,217.196 C183.126,213.634 181.944,210.401 180.026,207.967 L171.379,194.918 C180.769,190.21 196.311,178.223 191.742,169.188 Z M163.471,182.989 L131.067,134.087 C138.885,128.668 146.301,121.509 151.044,129.038 C156.247,137.3 170.149,157.571 176.738,169.059 C178.461,172.066 170.512,178.653 163.471,182.989 Z" id="Shape" stroke="#000000" stroke-width="4.7852" fill="#FFFFFF" fill-rule="nonzero" stroke-linejoin="round"></path>
                <path d="M164.846,212.163 C164.846,209.485 163.893,207.056 162.347,205.225 L106.261,115.147 L106.167,46.698 L74.314,46.698 L74.411,115.147 L19.98,205.085 C18.361,206.931 17.363,209.417 17.363,212.163 C17.363,216.825 20.229,220.757 24.152,222.017 C27.941,223.8 53.078,234.879 91.858,234.879 C131.616,234.879 156.144,223.079 158.823,221.73 C162.347,220.229 164.846,216.517 164.846,212.163 Z" id="Path" fill="#FBB040"></path>
                <polyline id="Path" stroke="#FFDB96" stroke-width="10.2802" stroke-linecap="round" points="39.473 208.348 86.081 120.099 86.081 44.446"></polyline>
                <path d="M100.105,77.704 C100.105,73.192 96.451,69.534 91.935,69.534 C87.424,69.534 83.765,73.192 83.765,77.704 C83.765,82.219 87.425,85.876 91.935,85.876 C96.451,85.876 100.105,82.219 100.105,77.704 Z" id="Path" stroke="#000000" stroke-width="4.7852" fill="#FFFFFF" stroke-linecap="round" stroke-linejoin="round"></path>
                <g transform="translate(81.000000, 138.000000)" fill="#FFDB96">
                    <circle id="Oval" cx="23.096" cy="7.766" r="6.82"></circle>
                    <path d="M11.678,34.785 C11.678,31.764 9.23,29.316 6.208,29.316 C3.191,29.316 0.739,31.764 0.739,34.785 C0.739,37.807 3.191,40.254 6.208,40.254 C9.229,40.254 11.678,37.808 11.678,34.785 Z" id="Path"></path>
                    <path d="M41.398,23.301 C41.398,21.029 39.554,19.185 37.279,19.185 C35.006,19.185 33.16,21.029 33.16,23.301 C33.16,25.577 35.006,27.419 37.279,27.419 C39.555,27.419 41.398,25.577 41.398,23.301 Z" id="Path"></path>
                </g>
                <path d="M129.945,36.722 C129.945,29.531 124.117,23.701 116.924,23.701 C115.291,23.701 113.735,24.015 112.293,24.564 C113.355,22.335 113.965,19.851 113.965,17.216 C113.965,7.753 106.295,0.085 96.831,0.085 C88.271,0.085 81.203,6.366 79.926,14.566 C78.49,11.073 75.057,8.61 71.05,8.61 C65.748,8.61 61.453,12.907 61.453,18.206 C61.453,21.02 62.672,23.544 64.603,25.3 C63.801,25.146 62.976,25.059 62.131,25.059 C54.939,25.059 49.108,30.89 49.108,38.082 C49.108,45.273 54.94,51.104 62.131,51.104 C62.456,51.104 64.205,51.332 64.917,51.426 C71.184,52.258 78.562,52.793 86.34,52.879 C87.256,58.662 92.248,63.088 98.287,63.088 C104.769,63.088 110.05,57.986 110.37,51.58 C112.201,51.031 112.549,50.873 113.945,50.525 C115.523,50.131 116.253,49.849 117.245,49.725 C124.287,49.552 129.945,43.804 129.945,36.722 Z" id="Path" stroke="#000000" stroke-width="4.7852" fill="#FFFFFF" stroke-linecap="round" stroke-linejoin="round"></path>
            </g>
        </g>
    </g>
</svg>