<?xml version="1.0" encoding="UTF-8" standalone="no"?>
<!DOCTYPE svg PUBLIC "-//W3C//DTD SVG 1.1//EN" "http://www.w3.org/Graphics/SVG/1.1/DTD/svg11.dtd">
<svg width="100%" height="100%" viewBox="0 0 198 253" version="1.1" xmlns="http://www.w3.org/2000/svg" xmlns:xlink="http://www.w3.org/1999/xlink" xml:space="preserve" xmlns:serif="http://www.serif.com/" style="fill-rule:evenodd;clip-rule:evenodd;stroke-linejoin:round;">
    <g id="Group" transform="matrix(1,0,0,1,3,3)">
        <path id="Shape" d="M191.742,169.188C183.691,153.262 164.611,126.131 157.553,115.051C150.252,103.588 140.088,110.171 123.199,122.215L116.426,111.992L116.426,48.498L63.809,48.498L63.809,111.992L3.318,207.784C1.31,210.237 0.073,213.547 0.073,217.197C0.073,223.4 3.628,228.628 8.498,230.306C13.203,232.675 44.401,247.416 92.535,247.416C141.879,247.416 172.325,231.72 175.646,229.923C180.023,227.927 183.126,222.987 183.126,217.196C183.126,213.634 181.944,210.401 180.026,207.967L171.379,194.918C180.769,190.21 196.311,178.223 191.742,169.188ZM163.471,182.989L131.067,134.087C138.885,128.668 146.301,121.509 151.044,129.038C156.247,137.3 170.149,157.571 176.738,169.059C178.461,172.066 170.512,178.653 163.471,182.989Z" style="fill:white;fill-rule:nonzero;stroke:black;stroke-width:4.79px;"/>
        <path id="Path" d="M164.846,212.163C164.846,209.485 163.893,207.056 162.347,205.225L106.261,115.147L106.167,46.698L74.314,46.698L74.411,115.147L19.98,205.085C18.361,206.931 17.363,209.417 17.363,212.163C17.363,216.825 20.229,220.757 24.152,222.017C27.941,223.8 53.078,234.879 91.858,234.879C131.616,234.879 156.144,223.079 158.823,221.73C162.347,220.229 164.846,216.517 164.846,212.163Z" style="fill:rgb(251,176,64);"/>
        <path id="Path1" serif:id="Path" d="M39.473,208.348L86.081,120.099L86.081,44.446" style="fill:none;stroke:rgb(255,219,150);stroke-width:10.28px;stroke-linecap:round;stroke-linejoin:miter;"/>
        <g transform="matrix(1,0,0,1,81,138)">
            <circle id="Oval" cx="23.096" cy="7.766" r="6.82" style="fill:rgb(255,219,150);"/>
            <path id="Path2" serif:id="Path" d="M11.678,34.785C11.678,31.764 9.23,29.316 6.208,29.316C3.191,29.316 0.739,31.764 0.739,34.785C0.739,37.807 3.191,40.254 6.208,40.254C9.229,40.254 11.678,37.808 11.678,34.785Z" style="fill:rgb(255,219,150);"/>
            <path id="Path3" serif:id="Path" d="M41.398,23.301C41.398,21.029 39.554,19.185 37.279,19.185C35.006,19.185 33.16,21.029 33.16,23.301C33.16,25.577 35.006,27.419 37.279,27.419C39.555,27.419 41.398,25.577 41.398,23.301Z" style="fill:rgb(255,219,150);"/>
        </g>
        <g id="Path4" serif:id="Path" transform="matrix(1,0,0,1,-3,-3)">
            <path d="M86.915,54.579C78.206,54.738 70.371,54.752 67.917,54.426C67.205,54.332 65.456,54.104 65.131,54.104C57.94,54.104 52.108,48.273 52.108,41.082C52.108,33.89 57.939,28.059 65.131,28.059C65.976,28.059 66.801,28.146 67.603,28.3C65.672,26.544 64.453,24.02 64.453,21.206C64.453,15.907 68.748,11.61 74.05,11.61C78.057,11.61 81.49,14.073 82.926,17.566C84.203,9.366 91.271,3.085 99.831,3.085C109.295,3.085 116.965,10.753 116.965,20.216C116.965,22.851 116.355,25.335 115.293,27.564C116.735,27.015 118.291,26.701 119.924,26.701C127.117,26.701 132.945,32.531 132.945,39.722C132.945,46.804 127.287,52.552 120.245,52.725C119.365,52.835 118.691,53.069 117.449,53.396C117.227,53.937 116.977,54.464 116.702,54.975C114.862,58.427 114.037,62.33 114.322,66.232C114.32,66.468 114.329,67.704 114.329,67.942C114.329,72.898 110.313,75.914 105.353,75.914C100.4,75.914 96.382,71.899 96.382,66.942C96.382,64.942 95.205,62.554 93.272,61.355C92.824,61.084 88.121,56.921 86.915,54.579Z" style="fill:white;stroke:black;stroke-width:4.79px;stroke-linecap:round;"/>
        </g>
    </g>
</svg>
