<?xml version="1.0" encoding="UTF-8"?>
<svg width="180px" height="226px" viewBox="0 0 180 226" version="1.1" xmlns="http://www.w3.org/2000/svg" xmlns:xlink="http://www.w3.org/1999/xlink">
    <!-- Generator: Sketch 52.2 (67145) - http://www.bohemiancoding.com/sketch -->
    <title>brew</title>
    <desc>Created with Sketch.</desc>
    <g id="Page-1" stroke="none" stroke-width="1" fill="none" fill-rule="evenodd">
        <g id="brew" transform="translate(2.000000, 3.000000)">
            <g id="Group">
                <path d="M175.348,166.058 C175.346,145.295 169.76,107.097 168.244,91.885 C166.644,75.813 146.83,80.293 131.779,81.387 L130.742,67.959 L14.375,67.959 L4.676,208.323 C4.676,208.323 29.889,220.289 73.526,220.289 C117.164,220.289 141.408,205.935 141.408,205.935 L139.564,182.081 C151.477,182.401 175.352,178.214 175.348,166.058 Z M133.02,97.412 C143.243,95.803 153.237,93.4 154.145,103 C155.213,114.312 159.018,142.66 159.831,158.055 C160.052,162.143 147.962,164.836 138.29,165.598 L133.02,97.412 Z" id="Shape" stroke="#000000" stroke-width="4.7852" fill="#FFFFFF" fill-rule="nonzero" stroke-linejoin="round"></path>
                <path d="M30.524,66.797 L21.917,193.174 C21.917,193.174 40.772,202.42 73.404,202.42 C106.035,202.42 124.166,191.323 124.166,191.323 L114.289,66.797 L30.524,66.797 Z" id="Path" fill="#FBB040"></path>
                <path d="M47.272,66.797 L39.77,179.617" id="Path" stroke="#FFDB96" stroke-width="11.963" stroke-linecap="round"></path>
                <path d="M131.486,38.449 C128.783,38.449 126.252,39.166 124.054,40.406 L123.794,40.09 C126.56,37.475 128.29,33.781 128.29,29.678 C128.29,21.75 121.862,15.323 113.935,15.323 C109.525,15.323 105.587,17.313 102.956,20.441 C102.956,20.329 102.97,20.219 102.97,20.106 C102.97,9.094 94.048,0.168 83.034,0.168 C72.021,0.168 63.093,9.094 63.093,20.106 C63.093,20.516 63.13,20.917 63.155,21.323 C60.382,18.257 56.386,16.319 51.926,16.319 C45.031,16.319 39.223,20.932 37.389,27.231 C35.766,23.066 31.743,20.104 27.004,20.104 C20.839,20.104 15.839,25.106 15.839,31.272 C15.839,34.715 17.433,37.76 19.886,39.809 C18.597,39.45 17.244,39.247 15.839,39.247 C7.467,39.247 0.686,46.032 0.686,54.401 C0.686,62.769 7.467,69.557 15.839,69.557 C22.731,72.203 51.119,79.422 82.965,78.354 C85.382,84.631 91.455,89.094 98.584,89.094 C107.262,89.094 114.396,82.494 115.246,74.043 C120.766,72.666 126.209,70.938 131.484,68.756 C139.851,68.756 146.636,61.972 146.636,53.604 C146.639,45.234 139.854,38.449 131.486,38.449 Z" id="Path" stroke="#000000" stroke-width="4.7852" fill="#FFFFFF" stroke-linecap="round" stroke-linejoin="round"></path>
                <circle id="Oval" stroke="#000000" stroke-width="4.7852" fill="#FFFFFF" stroke-linecap="round" stroke-linejoin="round" cx="95.992" cy="106.24" r="8.971"></circle>
            </g>
        </g>
    </g>
</svg>