<?xml version="1.0" encoding="UTF-8" standalone="no"?>
<!DOCTYPE svg PUBLIC "-//W3C//DTD SVG 1.1//EN" "http://www.w3.org/Graphics/SVG/1.1/DTD/svg11.dtd">
<svg width="100%" height="100%" viewBox="0 0 220 316" version="1.1" xmlns="http://www.w3.org/2000/svg" xmlns:xlink="http://www.w3.org/1999/xlink" xml:space="preserve" xmlns:serif="http://www.serif.com/" style="fill-rule:evenodd;clip-rule:evenodd;stroke-linecap:round;stroke-linejoin:round;">
    <g id="Group" transform="matrix(1,0,0,1,22.787,45.1529)">
        <g transform="matrix(1.55472,0,0,1.55472,-9.24485,91.5076)">
            <path d="M14.362,57.435C-6.854,35.427 -4.076,9.128 19.92,0.704" style="fill:none;stroke:black;stroke-width:7.29px;"/>
        </g>
        <g id="Group1" serif:id="Group" transform="matrix(1.55472,0,0,1.55472,18.6511,-38.1626)">
            <g transform="matrix(1,0,0,1,20,0)">
                <path id="Path" d="M16.148,29.062C20.587,15.233 14.318,6.548 5.259,5.07" style="fill:none;stroke:black;stroke-width:2.99px;"/>
                <circle id="Oval" cx="5.26" cy="5.07" r="4.993"/>
            </g>
            <g id="Path1" serif:id="Path" transform="matrix(1,0,0,1,0,19)">
                <path d="M12.297,38.421C12.297,41.554 9.757,44.094 6.623,44.094C3.49,44.094 0.95,41.554 0.95,38.421L0.95,30.705C0.95,27.572 3.49,25.032 6.623,25.032C9.757,25.032 12.297,27.572 12.297,30.705L12.297,38.421Z" style="fill:white;stroke:black;stroke-width:2.99px;"/>
                <path d="M75.384,38.421C75.384,41.554 72.843,44.094 69.71,44.094C66.578,44.094 64.037,41.554 64.037,38.421L64.037,30.705C64.037,27.572 66.578,25.032 69.71,25.032C72.843,25.032 75.384,27.572 75.384,30.705L75.384,38.421Z" style="fill:white;stroke:black;stroke-width:2.99px;"/>
                <path d="M41.344,0.75C44.477,0.75 47.018,3.291 47.018,6.423C47.018,9.556 44.477,12.096 41.344,12.096L33.629,12.096C30.495,12.096 27.955,9.555 27.955,6.423C27.955,3.29 30.495,0.75 33.629,0.75L41.344,0.75Z" style="fill:white;stroke:black;stroke-width:2.99px;"/>
            </g>
            <path id="Path2" serif:id="Path" d="M68.576,76.623C68.576,81.434 65.695,85.333 62.142,85.333L13.283,85.333C9.73,85.333 6.85,81.434 6.85,76.623L6.85,35.042C6.85,30.231 9.73,26.332 13.283,26.332L62.142,26.332C65.695,26.332 68.576,30.232 68.576,35.042L68.576,76.623Z" style="fill:rgb(161,163,166);stroke:black;stroke-width:3.16px;"/>
            <g id="Oval1" serif:id="Oval" transform="matrix(1,0,0,1,16,34)">
                <circle cx="9.282" cy="9.379" r="8.624" style="fill:white;stroke:black;stroke-width:2.71px;"/>
                <circle cx="9.282" cy="9.379" r="4.085"/>
            </g>
            <g id="Oval2" serif:id="Oval" transform="matrix(1,0,0,1,42,34)">
                <circle cx="9.153" cy="9.379" r="8.624" style="fill:white;stroke:black;stroke-width:2.71px;"/>
                <circle cx="9.152" cy="9.379" r="4.085"/>
            </g>
        </g>
        <g id="Path3" serif:id="Path" transform="matrix(1.55472,0,0,1.55472,-6.22444,44.2375)">
            <path d="M90.166,33.832C98.166,36.165 132.862,40.803 115.529,75.469" style="fill:none;stroke:black;stroke-width:7.29px;"/>
        </g>
        <g id="Path4" serif:id="Path" transform="matrix(1.54118,0.204733,-0.204733,1.54118,22.0631,-61.5241)">
            <path d="M113.294,133.019C105.944,128.527 100.335,138.946 98.683,141.287C97.03,143.625 93.686,140.912 94.61,139.108C95.53,137.306 105.439,120.803 115.801,128.478L113.294,133.019Z" style="stroke:black;stroke-width:3.64px;"/>
        </g>
        <g transform="matrix(1,0,0,1,4,112)">
            <path id="Shape" d="M145.932,115.67C150.717,115.687 155.312,113.799 158.701,110.422C162.091,107.045 163.996,102.457 163.996,97.672C163.998,79.399 163.998,51.162 163.998,32.839C163.998,28.065 162.102,23.487 158.726,20.111C155.35,16.735 150.772,14.839 145.998,14.839L131.16,14.839C128.951,14.839 127.16,13.048 127.16,10.839L127.16,1.409L10.13,1.409C10.13,1.409 10.388,121.948 10.425,139.622C10.428,140.985 11.125,142.254 12.275,142.987C17.487,146.005 34.196,151.737 69.279,151.737C105.104,151.737 121.118,144.063 125.703,140.598C126.614,139.842 127.141,138.72 127.141,137.536C127.16,133.711 127.16,124.848 127.16,119.612C127.16,118.537 127.593,117.507 128.361,116.755C129.129,116.002 130.168,115.591 131.243,115.613C135.644,115.675 140.917,115.684 145.932,115.67ZM127.16,35.864C127.16,34.538 127.687,33.266 128.624,32.328C129.562,31.391 130.834,30.864 132.16,30.864L144.898,30.864C146.224,30.864 147.496,31.391 148.434,32.328C149.371,33.266 149.898,34.538 149.898,35.864L149.898,94.049C149.898,95.375 149.371,96.647 148.434,97.585C147.496,98.522 146.224,99.049 144.898,99.049L132.16,99.049C130.834,99.049 129.562,98.522 128.624,97.585C127.687,96.647 127.16,95.375 127.16,94.049L127.16,35.864Z" style="fill:white;fill-rule:nonzero;stroke:black;stroke-width:4.79px;stroke-linecap:butt;"/>
            <path id="Path5" serif:id="Path" d="M21.667,0.249L21.667,124.235C21.667,125.666 22.431,126.988 23.67,127.702C28.731,130.114 43.413,135.871 69.154,135.871C95.066,135.871 109.312,128.876 114.082,125.993C115.221,125.259 115.909,123.996 115.909,122.642C115.92,106.201 115.92,0.249 115.92,0.249L21.667,0.249Z" style="fill:rgb(251,176,64);"/>
            <g id="Path6" serif:id="Path" transform="matrix(1,0,0,0.849312,0,21.0375)">
                <path d="M35.521,0.249L35.521,113.065" style="fill:none;stroke:rgb(255,219,150);stroke-width:11.96px;stroke-linejoin:miter;"/>
            </g>
        </g>
        <g transform="matrix(1.55472,0,0,1.55472,-7.75554,92.1522)">
            <path d="M12.995,56.995C24.451,48.64 33.07,65.811 33.953,68.382C34.836,70.953 32.156,72.639 30.658,71.62C29.16,70.602 23.062,55.072 16.58,60.745C10.1,66.418 18.367,74.882 20.107,77.158C21.847,79.434 18.257,81.815 16.812,80.395C15.368,78.977 2.577,64.593 12.995,56.995Z" style="stroke:black;stroke-width:3.64px;"/>
        </g>
        <g id="Path7" serif:id="Path" transform="matrix(1.54118,0.204733,-0.204733,1.54118,22.0631,-61.5241)">
            <path d="M115.801,128.478C127.196,136.916 113.381,150.27 111.192,151.879C109.003,153.488 106.593,151.437 107.118,149.701C107.641,147.967 120.642,137.511 113.294,133.019L115.801,128.478Z" style="stroke:black;stroke-width:3.64px;"/>
        </g>
        <g id="Path8" serif:id="Path" transform="matrix(1,0,0,1,-5.782,-3.414)">
            <path d="M43.739,73.505C46.212,68.507 51.367,65.417 57.313,65.065C64.48,64.641 68.48,69.262 68.48,68.852C68.48,57.84 77.408,48.914 88.421,48.914C99.435,48.914 108.357,57.84 108.357,68.852C108.357,68.965 112.598,63.885 119.322,64.069C127.246,64.286 133.677,70.496 133.677,78.424C133.677,82.527 129.441,89.152 129.441,89.152C131.639,87.912 134.17,87.195 136.873,87.195C140.511,87.195 143.851,88.478 146.463,90.616C149.943,93.393 152.173,97.67 152.171,102.467C152.171,110.133 146.48,116.468 139.092,117.479C137.419,117.716 135.778,118.142 134.201,118.749C129.81,120.404 125.32,121.776 120.784,122.908C120.558,125.144 119.892,127.25 118.875,129.139C117.035,132.591 116.21,136.494 116.495,140.396C116.493,140.632 116.502,141.868 116.502,142.106C116.502,147.062 112.486,150.078 107.526,150.078C102.573,150.078 98.555,146.063 98.555,141.106C98.555,139.106 97.378,136.718 95.445,135.519C94.997,135.248 94.564,134.957 94.145,134.646C91.588,132.783 89.578,130.212 88.399,127.222C62.849,128.068 39.538,123.582 27.787,120.413C24.766,119.557 21.706,118.846 18.616,118.283C15.6,117.685 12.894,116.209 10.786,114.132C7.882,111.371 6.073,107.47 6.073,103.147C6.073,94.902 12.654,88.195 20.854,87.998C14.382,82.58 21.649,69.35 32.391,68.85C37.957,68.591 43.739,73.505 43.739,73.505Z" style="fill:white;stroke:black;stroke-width:4.79px;"/>
        </g>
    </g>
</svg>
