<?xml version="1.0" encoding="UTF-8"?>
<svg width="130px" height="193px" viewBox="0 0 130 193" version="1.1" xmlns="http://www.w3.org/2000/svg" xmlns:xlink="http://www.w3.org/1999/xlink">
    <!-- Generator: Sketch 52.2 (67145) - http://www.bohemiancoding.com/sketch -->
    <title>brewtestbot</title>
    <desc>Created with Sketch.</desc>
    <g id="Page-1" stroke="none" stroke-width="1" fill="none" fill-rule="evenodd">
        <g id="brewtestbot" transform="translate(4.000000, 0.000000)">
            <g id="Group" transform="translate(16.000000, 0.000000)">
                <g transform="translate(20.000000, 0.000000)">
                    <path d="M16.148,29.062 C20.587,15.233 14.318,6.548 5.259,5.07" id="Path" stroke="#000000" stroke-width="2.9908" stroke-linecap="round" stroke-linejoin="round"></path>
                    <circle id="Oval" fill="#000000" cx="5.26" cy="5.07" r="4.993"></circle>
                </g>
                <g id="Path" stroke-linecap="round" stroke-linejoin="round" transform="translate(0.000000, 19.000000)" fill="#FFFFFF" stroke="#000000" stroke-width="2.9908">
                    <path d="M12.297,38.421 C12.297,41.554 9.757,44.094 6.623,44.094 C3.49,44.094 0.95,41.554 0.95,38.421 L0.95,30.705 C0.95,27.572 3.49,25.032 6.623,25.032 C9.757,25.032 12.297,27.572 12.297,30.705 L12.297,38.421 Z"></path>
                    <path d="M75.384,38.421 C75.384,41.554 72.843,44.094 69.71,44.094 C66.578,44.094 64.037,41.554 64.037,38.421 L64.037,30.705 C64.037,27.572 66.578,25.032 69.71,25.032 C72.843,25.032 75.384,27.572 75.384,30.705 L75.384,38.421 Z"></path>
                    <path d="M41.344,0.75 C44.477,0.75 47.018,3.291 47.018,6.423 C47.018,9.556 44.477,12.096 41.344,12.096 L33.629,12.096 C30.495,12.096 27.955,9.555 27.955,6.423 C27.955,3.29 30.495,0.75 33.629,0.75 L41.344,0.75 Z"></path>
                </g>
                <path d="M68.576,76.623 C68.576,81.434 65.695,85.333 62.142,85.333 L13.283,85.333 C9.73,85.333 6.85,81.434 6.85,76.623 L6.85,35.042 C6.85,30.231 9.73,26.332 13.283,26.332 L62.142,26.332 C65.695,26.332 68.576,30.232 68.576,35.042 L68.576,76.623 Z" id="Path" stroke="#000000" stroke-width="3.1592" fill="#A1A3A6" stroke-linecap="round" stroke-linejoin="round"></path>
                <g id="Oval" transform="translate(16.000000, 34.000000)">
                    <circle stroke="#000000" stroke-width="2.7148" fill="#FFFFFF" stroke-linecap="round" stroke-linejoin="round" cx="9.282" cy="9.379" r="8.624"></circle>
                    <circle fill="#000000" cx="9.282" cy="9.379" r="4.085"></circle>
                </g>
                <g id="Oval" transform="translate(42.000000, 34.000000)">
                    <circle stroke="#000000" stroke-width="2.7148" fill="#FFFFFF" stroke-linecap="round" stroke-linejoin="round" cx="9.153" cy="9.379" r="8.624"></circle>
                    <circle fill="#000000" cx="9.152" cy="9.379" r="4.085"></circle>
                </g>
            </g>
            <g id="Group" transform="translate(0.000000, 53.000000)">
                <g id="Path" transform="translate(7.000000, 42.000000)" fill="#FFFFFF" stroke="#000000" stroke-width="2.9908">
                    <path d="M80.574,9.047 C90.088,8.549 102.009,5.061 103.052,15.527 C103.999,25.035 107.489,48.908 107.49,61.884 C107.492,69.861 91.039,72.349 84.064,71.851 C77.089,71.354 80.574,9.047 80.574,9.047 Z"></path>
                    <path d="M76.468,19.516 C84.084,19.145 93.534,15.028 94.239,22.475 C94.907,29.545 97.284,47.262 97.792,56.883 C97.97,60.209 85.101,62.059 79.515,61.69 C73.933,61.32 76.468,19.516 76.468,19.516 Z"></path>
                    <path d="M6.883,0.574 L0.821,88.301 C0.821,88.301 16.58,95.78 43.852,95.78 C71.126,95.78 86.279,86.809 86.279,86.809 L79.612,0.575 L6.883,0.575 L6.883,0.574 Z"></path>
                </g>
                <path d="M114.49,103.885 C114.488,90.908 110.999,67.035 110.052,57.528 C109.051,47.483 96.666,50.284 87.26,50.967 L86.612,42.574 L13.883,42.574 L7.821,130.301 C7.821,130.301 23.58,137.78 50.852,137.78 C78.126,137.78 93.279,128.809 93.279,128.809 L92.126,113.901 C99.57,114.1 114.492,111.482 114.49,103.885 Z M88.035,60.982 C94.425,59.976 100.67,58.474 101.238,64.474 C101.906,71.544 104.283,89.261 104.791,98.882 C104.93,101.437 97.373,103.12 91.328,103.597 L88.035,60.982 Z" id="Shape" stroke="#000000" stroke-width="2.9908" fill="#FFFFFF" fill-rule="nonzero" stroke-linejoin="round"></path>
                <path d="M23.976,41.848 L18.596,120.832 C18.596,120.832 30.381,126.611 50.776,126.611 C71.171,126.611 82.503,119.675 82.503,119.675 L76.329,41.847 L23.976,41.847 L23.976,41.848 Z" id="Path" fill="#FBB040"></path>
                <path d="M34.443,41.848 L29.754,112.359" id="Path" stroke="#FFDB96" stroke-width="7.4769" stroke-linecap="round"></path>
                <g id="Path" stroke-linecap="round" stroke-linejoin="round" transform="translate(0.000000, 31.000000)" stroke="#000000">
                    <path d="M14.362,57.435 C-6.854,35.427 -4.076,9.128 19.92,0.704" stroke-width="7.2925"></path>
                    <path d="M12.995,56.995 C24.451,48.64 33.07,65.811 33.953,68.382 C34.836,70.953 32.156,72.639 30.658,71.62 C29.16,70.602 23.062,55.072 16.58,60.745 C10.1,66.418 18.367,74.882 20.107,77.158 C21.847,79.434 18.257,81.815 16.812,80.395 C15.368,78.977 2.577,64.593 12.995,56.995 Z" stroke-width="3.635" fill="#000000"></path>
                </g>
                <path d="M90.166,33.832 C98.166,36.165 134.832,41.832 117.499,76.498" id="Path" stroke="#000000" stroke-width="7.2925" stroke-linecap="round" stroke-linejoin="round"></path>
                <path d="M87.076,24.131 C85.387,24.131 83.805,24.578 82.431,25.353 L82.27,25.157 C83.998,23.521 85.081,21.214 85.081,18.648 C85.081,13.694 81.062,9.675 76.108,9.675 C73.352,9.675 70.891,10.919 69.246,12.874 C69.246,12.804 69.254,12.736 69.254,12.666 C69.254,5.783 63.678,0.204 56.795,0.204 C49.912,0.204 44.332,5.783 44.332,12.666 C44.332,12.922 44.355,13.172 44.371,13.425 C42.638,11.509 40.141,10.299 37.353,10.299 C33.043,10.299 29.414,13.181 28.267,17.119 C27.252,14.515 24.738,12.664 21.777,12.664 C17.923,12.664 14.798,15.79 14.798,19.643 C14.798,21.796 15.794,23.698 17.327,24.979 C16.521,24.755 15.676,24.627 14.798,24.627 C9.566,24.627 5.327,28.867 5.327,34.098 C5.327,39.328 9.565,43.571 14.798,43.571 C19.106,45.225 36.848,49.737 56.752,49.069 C58.263,52.993 62.058,55.782 66.514,55.782 C71.938,55.782 76.396,51.657 76.928,46.376 C80.376,45.515 83.779,44.435 87.075,43.071 C92.305,43.071 96.546,38.831 96.546,33.6 C96.547,28.371 92.307,24.131 87.076,24.131 Z" id="Path" stroke="#000000" stroke-width="2.9908" fill="#FFFFFF" stroke-linecap="round" stroke-linejoin="round"></path>
                <circle id="Oval" stroke="#000000" stroke-width="2.9908" fill="#FFFFFF" stroke-linecap="round" stroke-linejoin="round" cx="64.893" cy="66.5" r="5.607"></circle>
            </g>
            <path d="M115.801,128.478 C127.196,136.916 113.381,150.27 111.192,151.879 C109.003,153.488 106.593,151.437 107.118,149.701 C107.641,147.967 120.642,137.511 113.294,133.019 C105.944,128.527 100.335,138.946 98.683,141.287 C97.03,143.625 93.686,140.912 94.61,139.108 C95.53,137.306 105.439,120.803 115.801,128.478 Z" id="Path" stroke="#000000" stroke-width="3.635" fill="#000000" stroke-linecap="round" stroke-linejoin="round"></path>
            <path d="M108.25,135.25 L113.161,137.334 C112.412,130.146 111.492,122.857 110.807,117.168 L106.5,121.5 L101.513,120.138 C102.119,125.714 103.215,134.475 103.993,142.201 L108.25,135.25 Z" id="Path" fill="#FFFFFF"></path>
            <path d="M113.161,137.334 C112.412,130.146 111.492,122.857 110.807,117.168 M101.513,120.138 C102.119,125.714 103.215,134.475 103.993,142.201" id="Shape" stroke="#000000" stroke-width="2.9908" fill="#FFFFFF" fill-rule="nonzero" stroke-linejoin="round"></path>
        </g>
    </g>
</svg>