<?xml version="1.0" encoding="UTF-8" standalone="no"?>
<svg xml:space="preserve" fill-rule="evenodd" stroke-linejoin="round" clip-rule="evenodd" viewBox="0 0 1200 630" version="1.1" xmlns="http://www.w3.org/2000/svg">
  <rect id="bg" width="1200" height="630" fill="#2e2a24" />
  <g id="text" fill="#f9d094" transform="matrix(1.5,0,0,1.5,-9.3677381e-4,-4.2932853)">
    <g font-family="'SFProDisplay-Bold', 'SF Pro Display', '-apple-system'" font-size="33.376px" font-weight="700">
      <text x="-1891.71" y="307.548" transform="matrix(0.99871735,0,0,0.99712703,2243.8134,-16.384242)">for macOS (or Linux)</text>
      <text x="-1966.62" y="263.491" transform="matrix(0.99871735,0,0,0.99712703,2243.8134,-16.384242)">The missing package manager</text>
    </g>
    <text x="96.071999" y="73.397003" font-family="'SFProDisplay-Black','SF Pro Display',-apple-system" font-size="35px" font-weight="900" transform="scale(2.6666667,2.6624204)">Homebrew</text>
  </g>
  <g id="logo" transform="matrix(1.4637044,0,0,1.4637044,5.2184213,9.5728387)">
    <path fill="#d1d3d4" stroke="#000" stroke-width="1.93px" d="M 42.522,44.065 C 42.82,34.604 39.633,29.025 30.47,25.341 27.866,34.45 38.618,42.85 42.522,44.065 Z" transform="scale(2.6666667,2.6624204)" />
    <path fill="#d1d3d4" stroke="#000" stroke-width="1.93px" d="m 67.371,60.1 c 0.298,-7.769 -1.665,-10.905 -3.137,-13.147 -1.495,-2.092 -5.08,-5.379 -9.485,-5.517 -4.166,-0.13 -5.168,2.172 -9.011,2.311 -0.63,-6.998 4.652,-10.838 4.652,-10.838 0,0 -1.444,-2.041 -2.639,-2.54 -1.719,1.527 -6.449,6.621 -5.354,13.176 -3.536,-0.676 -6.032,-2.7 -9.747,-1.969 -5.06,0.996 -9.232,4.055 -11.609,10.769 -2.378,6.714 0.839,14.547 1.538,16.784 0.7,2.239 5.875,11.748 9.931,13.148 4.056,1.4 4.057,0.769 6.225,-0.07 2.168,-0.839 5.454,-2.377 10.281,-0.629 4.824,1.748 5.454,2.167 8.46,0.209 3.009,-1.957 6.924,-8.041 7.832,-9.79 0.91,-1.748 1.399,-2.657 1.68,-3.566 2.923,-1.459 0.114,-1.369 0.383,-8.331 z" transform="scale(2.6666667,2.6624204)" />
    <path fill="#fff" fill-rule="nonzero" stroke="#000" stroke-width="1.93px" d="m 75.222,116.88 c 0.009,0 0.017,0 0.026,0 3.978,0 7.251,-3.273 7.251,-7.25 0.001,-7.361 0.001,-18.736 0.001,-26.118 0,-3.977 -3.273,-7.251 -7.251,-7.251 h -5.977 c -0.884,0 -1.612,-0.727 -1.612,-1.611 V 70.851 H 20.516 l 0.119,55.678 c 10e-4,0.549 0.282,1.061 0.745,1.356 2.099,1.215 8.83,3.524 22.963,3.524 14.432,0 20.883,-3.091 22.73,-4.487 0.367,-0.304 0.579,-0.757 0.579,-1.233 0.008,-1.541 0.008,-5.112 0.008,-7.221 0,0 0,0 0,0 0,-0.884 0.727,-1.611 1.611,-1.611 0.011,0 0.023,0 0.034,0 1.773,0.025 3.897,0.029 5.917,0.023 z M 67.66,84.731 c 0,-0.534 0.212,-1.047 0.59,-1.424 0.378,-0.378 0.89,-0.59 1.424,-0.59 h 5.132 c 0.534,0 1.046,0.212 1.424,0.59 0.378,0.377 0.59,0.89 0.59,1.424 v 23.439 c 0,0.534 -0.212,1.047 -0.59,1.425 -0.378,0.377 -0.89,0.589 -1.424,0.59 h -5.132 c -0.534,-0.001 -1.046,-0.213 -1.424,-0.59 -0.378,-0.378 -0.59,-0.891 -0.59,-1.425 z" transform="scale(2.6666667,2.6624204)" />
    <path fill="#fbb040" d="m 25.163,70.384 v 49.946 c 0,0.577 0.308,1.109 0.807,1.397 2.039,0.972 7.953,3.291 18.323,3.291 10.438,0 16.177,-2.818 18.099,-3.979 0.458,-0.296 0.736,-0.805 0.736,-1.35 0.004,-6.623 0.004,-49.305 0.004,-49.305 z" transform="scale(2.6666667,2.6624204)" />
    <path fill="none" stroke="#ffdb96" stroke-linecap="round" stroke-linejoin="miter" stroke-width="4.47px" d="m 30.744,78.844 v 38.598" transform="scale(2.6666667,2.6624204)" />
    <path fill="#fff" stroke="#000" stroke-linecap="round" stroke-width="1.93px" d="m 52.196,80.633 c 0,-0.805 -0.474,-1.767 -1.253,-2.25 -1.276,-0.774 -2.26,-1.951 -2.796,-3.344 C 37.838,75.386 28.428,73.576 23.688,72.297 22.471,71.952 21.238,71.666 19.994,71.439 17.156,70.877 15,68.385 15,65.389 c 0,-3.297 2.616,-5.976 5.885,-6.093 0.63,-3.488 3.674,-6.135 7.343,-6.135 4.126,0 7.47,3.345 7.47,7.47 0,0.869 -0.156,1.7 -0.428,2.476 l 0.022,0.003 c 0.921,-2.881 3.619,-4.969 6.806,-4.969 3.167,0 5.85,2.063 6.787,4.918 -0.027,-0.261 -0.04,-0.523 -0.04,-0.785 0,-4.291 3.478,-7.769 7.768,-7.769 3.473,0 6.413,2.28 7.407,5.423 l 0.678,-0.176 c 0.913,-0.517 1.944,-0.788 2.994,-0.788 3.371,0 6.104,2.733 6.103,6.104 0,3.088 -2.293,5.64 -5.269,6.047 -0.674,0.096 -1.335,0.268 -1.97,0.512 -1.769,0.667 -3.578,1.219 -5.405,1.675 -0.089,0.88 -0.35,1.733 -0.769,2.511 -0.741,1.39 -1.074,2.963 -0.959,4.534 -0.001,0.095 0.003,0.593 0.003,0.689 0,1.997 -1.618,3.212 -3.616,3.212 -1.982,0 -3.614,-1.632 -3.614,-3.614 0,0 0,-0.001 0,-0.001 z" transform="scale(2.6666667,2.6624204)" />
  </g>
</svg>
