<?xml version="1.0" encoding="UTF-8"?>
<svg width="200px" height="295px" viewBox="0 0 200 295" version="1.1" xmlns="http://www.w3.org/2000/svg" xmlns:xlink="http://www.w3.org/1999/xlink">
    <!-- Generator: Sketch 52.2 (67145) - http://www.bohemiancoding.com/sketch -->
    <title>linuxbrew</title>
    <desc>Created with Sketch.</desc>
    <g id="Page-1" stroke="none" stroke-width="1" fill="none" fill-rule="evenodd">
        <g id="linuxbrew" transform="translate(2.000000, 2.000000)">
            <g id="Group">
                <path d="M194.662,235.783 C194.658,214.992 189.067,176.743 187.549,161.51 C185.947,145.417 166.104,149.903 151.033,150.998 L149.994,137.551 L33.469,137.551 L23.755,278.11 C23.755,278.11 49.004,290.089 92.7,290.089 C136.398,290.089 160.676,275.714 160.676,275.714 L158.828,251.831 C170.758,252.15 194.666,247.955 194.662,235.783 Z M152.273,167.044 C162.511,165.431 172.517,163.026 173.429,172.638 C174.499,183.967 178.306,212.355 179.121,227.767 C179.341,231.861 167.234,234.558 157.55,235.322 L152.273,167.044 Z" id="Shape" stroke="#000000" stroke-width="4.7856" fill="#FFFFFF" fill-rule="nonzero" stroke-linejoin="round"></path>
                <path d="M49.641,136.389 L41.02,262.934 C41.02,262.934 59.903,272.195 92.579,272.195 C125.257,272.195 143.411,261.083 143.411,261.083 L133.52,136.39 L49.641,136.39 L49.641,136.389 Z" id="Path" fill="#FBB040"></path>
                <path d="M66.412,136.389 L58.896,249.359" id="Path" stroke="#FFDB96" stroke-width="11.9795" stroke-linecap="round"></path>
                <g>
                    <path d="M136.363,50.498 C133.169,71.264 125.98,88.035 123.586,95.223 C121.19,102.411 43.723,106.405 43.723,97.619 C43.723,88.833 45.388,51.223 47.75,40.48" id="Path" stroke="#000000" stroke-width="4.7918" fill="#000000" stroke-linecap="round" stroke-linejoin="round"></path>
                    <path d="M136.363,50.498 C133.595,74.964 111.513,92.563 87.047,89.795 C62.579,87.028 44.983,64.951 47.75,40.48 C50.514,16.014 72.596,-1.584 97.063,1.184 C121.531,3.95 139.127,26.029 136.363,50.498 Z" id="Path" stroke="#000000" stroke-width="4.7856" fill="#000000" stroke-linecap="round" stroke-linejoin="round"></path>
                    <path d="M53.307,49.7 C54.903,34.527 68.092,10.653 85.251,20.95 C105.217,32.93 88.445,60.88 69.277,64.874 C50.11,68.869 53.307,49.7 53.307,49.7 Z" id="Path" stroke="#000000" stroke-width="4.7856" fill="#FFFFFF" stroke-linecap="round" stroke-linejoin="round"></path>
                    <path d="M46.918,48.902 C42.191,48.114 2.193,50.498 0.598,56.887 C-1.003,63.277 36.534,78.451 43.723,79.249 C50.911,80.047 66.883,71.262 66.883,67.27 C66.883,63.278 51.708,49.703 46.918,48.902 Z" id="Path" stroke="#000000" stroke-width="4.7856" fill="#FBB040" stroke-linecap="round" stroke-linejoin="round"></path>
                    <circle id="Oval" fill="#000000" cx="68.479" cy="48.101" r="7.985"></circle>
                </g>
                <path d="M150.738,108.002 C148.033,108.002 145.497,108.717 143.298,109.96 L143.041,109.645 C145.807,107.023 147.541,103.326 147.541,99.215 C147.541,91.277 141.105,84.841 133.168,84.841 C128.751,84.841 124.807,86.834 122.17,89.966 C122.17,89.854 122.186,89.746 122.186,89.633 C122.186,78.605 113.25,69.668 102.221,69.668 C91.196,69.668 82.256,78.605 82.256,89.633 C82.256,90.042 82.293,90.445 82.318,90.848 C79.542,87.779 75.541,85.841 71.075,85.841 C64.169,85.841 58.352,90.457 56.514,96.767 C54.891,92.598 50.86,89.63 46.118,89.63 C39.943,89.63 34.935,94.638 34.935,100.812 C34.935,104.264 36.532,107.31 38.99,109.362 C37.7,109.005 36.344,108.799 34.935,108.799 C26.555,108.799 19.762,115.594 19.762,123.974 C19.762,132.355 26.555,139.15 34.935,139.15 C41.837,141.803 70.266,149.033 102.157,147.961 C104.577,154.248 110.657,158.716 117.796,158.716 C126.485,158.716 133.628,152.108 134.483,143.644 C140.005,142.266 145.457,140.535 150.74,138.35 C159.121,138.35 165.914,131.558 165.914,123.178 C165.912,114.796 159.119,108.002 150.738,108.002 Z" id="Path" stroke="#000000" stroke-width="4.7856" fill="#FFFFFF" stroke-linecap="round" stroke-linejoin="round"></path>
                <path d="M124.182,175.885 C124.182,170.923 120.162,166.901 115.198,166.901 C110.237,166.901 106.214,170.923 106.214,175.885 C106.214,180.848 110.237,184.87 115.198,184.87 C120.162,184.87 124.182,180.848 124.182,175.885 Z" id="Path" stroke="#000000" stroke-width="4.7856" fill="#FFFFFF" stroke-linecap="round" stroke-linejoin="round"></path>
            </g>
        </g>
    </g>
</svg>